<?xml version="1.0" encoding="utf-8"?>
<!-- Generator: Adobe Illustrator 21.1.0, SVG Export Plug-In . SVG Version: 6.00 Build 0)  -->
<svg version="1.1" id="Слой_1" xmlns="http://www.w3.org/2000/svg" xmlns:xlink="http://www.w3.org/1999/xlink" x="0px" y="0px"
	 viewBox="0 0 288 560" style="enable-background:new 0 0 288 560;" xml:space="preserve">
<style type="text/css">
	.st0{enable-background:new    ;}
	.st1{fill:#B7753D;}
	.st2{fill:#613E20;}
	.st3{fill:#654122;}
	.st4{clip-path:url(#SVGID_2_);enable-background:new    ;}
	.st5{fill:#744A26;}
	.st6{fill:#784D28;}
	.st7{fill:#7C4F29;}
	.st8{fill:#7F522A;}
	.st9{fill:#83542C;}
	.st10{fill:#87572D;}
	.st11{fill:#8B592E;}
	.st12{fill:#8F5C2F;}
	.st13{fill:#935E31;}
	.st14{fill:#976132;}
	.st15{fill:#704825;}
	.st16{fill:#6C4524;}
	.st17{fill:#684323;}
	.st18{fill:#644021;}
	.st19{fill:#9A6333;}
</style>
<g>
	<g>
		<g class="st0">
			<g>
				<polygon class="st1" points="70.4,301.8 78.9,301.8 79.5,379.4 71,379.4 				"/>
			</g>
			<g>
				<polygon class="st2" points="71,379.4 79.5,379.4 74.3,379.6 65.8,379.6 				"/>
			</g>
			<g>
				<polygon class="st3" points="70.4,301.8 71,379.4 65.8,379.6 65.2,302 				"/>
			</g>
		</g>
	</g>
</g>
<g>
	<g>
		<g class="st0">
			<g>
				<polygon class="st1" points="219.7,297.6 228.4,297.6 229,371 220.3,371 				"/>
			</g>
			<g>
				<polygon class="st2" points="220.3,371 229,371 223.3,371.2 214.6,371.2 				"/>
			</g>
			<g>
				<polygon class="st3" points="219.7,297.6 220.3,371 214.6,371.2 214,297.8 				"/>
			</g>
		</g>
	</g>
</g>
<g>
	<g>
		<g class="st0">
			<g>
				<polygon class="st1" points="153.6,309.1 159.5,309.1 159.7,345.8 153.9,345.8 				"/>
			</g>
			<g>
				<polygon class="st2" points="153.9,345.8 159.7,345.8 154.6,346 148.7,346 				"/>
			</g>
			<g>
				<polygon class="st3" points="153.6,309.1 153.9,345.8 148.7,346 148.4,309.3 				"/>
			</g>
		</g>
	</g>
</g>
<g>
	<g>
		<g class="st0">
			<g>
				<polygon class="st1" points="141.6,301.8 150.7,301.8 151.4,389.9 142.3,389.9 				"/>
			</g>
			<g>
				<polygon class="st2" points="142.3,389.9 151.4,389.9 146.2,390.1 137.2,390.1 				"/>
			</g>
			<g>
				<polygon class="st3" points="141.6,301.8 142.3,389.9 137.2,390.1 136.5,302 				"/>
			</g>
		</g>
	</g>
</g>
<g>
	<g>
		<g class="st0">
			<g class="st0">
				<defs>
					<path id="SVGID_1_" class="st0" d="M239.9,288.4l0.3,11.8c-0.3,16.8-42.6,31.2-94.5,32.1c-51.9,0.9-93.7-12-93.5-28.8
						l-0.3-11.8c-0.3,16.8,41.6,29.7,93.5,28.8C197.3,319.6,239.6,305.3,239.9,288.4z"/>
				</defs>
				<clipPath id="SVGID_2_">
					<use xlink:href="#SVGID_1_"  style="overflow:visible;"/>
				</clipPath>
				<g class="st4">
					<path class="st5" d="M239.9,288.4l0.3,11.8c0,0.4,0,0.8-0.1,1.2l-0.3-11.8C239.8,289.3,239.9,288.9,239.9,288.4"/>
					<path class="st6" d="M239.8,289.7l0.3,11.8c-0.1,0.6-0.2,1.1-0.4,1.7l-0.3-11.8C239.6,290.8,239.7,290.2,239.8,289.7"/>
					<path class="st7" d="M239.4,291.3l0.3,11.8c-0.2,0.5-0.4,1.1-0.6,1.6l-0.3-11.8C239,292.4,239.3,291.9,239.4,291.3"/>
					<path class="st8" d="M238.8,293l0.3,11.8c-0.3,0.6-0.6,1.1-0.9,1.7l-0.3-11.8C238.2,294.1,238.5,293.5,238.8,293"/>
					<path class="st9" d="M237.9,294.6l0.3,11.8c-0.4,0.6-0.8,1.1-1.2,1.7l-0.3-11.8C237.1,295.8,237.5,295.2,237.9,294.6"/>
					<path class="st10" d="M236.6,296.3l0.3,11.8c-0.5,0.6-1.1,1.2-1.7,1.8l-0.3-11.8C235.6,297.5,236.1,296.9,236.6,296.3"/>
					<path class="st11" d="M235,298.1l0.3,11.8c-0.7,0.7-1.5,1.4-2.3,2.1l-0.3-11.8C233.5,299.5,234.2,298.8,235,298.1"/>
					<path class="st12" d="M232.6,300.2l0.3,11.8c-1,0.8-2.2,1.6-3.4,2.4l-0.3-11.8C230.4,301.8,231.6,301,232.6,300.2"/>
					<path class="st13" d="M229.2,302.6l0.3,11.8c-1.9,1.2-4,2.4-6.3,3.5l-0.3-11.8C225.2,305,227.3,303.8,229.2,302.6"/>
					<path class="st14" d="M222.9,306.1l0.3,11.8c-8.1,3.9-18.8,7.2-31.2,9.7l-0.3-11.8C204.1,313.3,214.7,310,222.9,306.1"/>
					<path class="st13" d="M191.7,315.8l0.3,11.8c-4.8,1-9.9,1.8-15.2,2.5l-0.3-11.8C181.8,317.6,186.9,316.7,191.7,315.8"/>
					<path class="st12" d="M176.5,318.3l0.3,11.8c-4,0.5-8.1,1-12.3,1.3l-0.3-11.8C168.5,319.2,172.6,318.8,176.5,318.3"/>
					<path class="st11" d="M164.3,319.6l0.3,11.8c-3.7,0.3-7.5,0.5-11.3,0.7l-0.3-11.8C156.8,320.1,160.6,319.9,164.3,319.6"/>
					<path class="st10" d="M153,320.3l0.3,11.8c-2.5,0.1-5,0.2-7.6,0.2c-1,0-2,0-3.1,0l-0.3-11.8c1,0,2,0,3.1,0
						C147.9,320.5,150.5,320.4,153,320.3"/>
					<path class="st9" d="M142.3,320.6l0.3,11.8c-3.4,0-6.7,0-10-0.1l-0.3-11.8C135.6,320.5,139,320.6,142.3,320.6"/>
					<path class="st8" d="M132.3,320.5l0.3,11.8c-3.2-0.1-6.3-0.2-9.4-0.4L123,320C126,320.2,129.2,320.4,132.3,320.5"/>
					<path class="st7" d="M123,320l0.3,11.8c-3-0.2-6-0.4-8.9-0.7l-0.3-11.8C117,319.6,120,319.8,123,320"/>
					<path class="st6" d="M114.1,319.3l0.3,11.8c-2.9-0.3-5.7-0.6-8.4-1l-0.3-11.8C108.4,318.7,111.2,319.1,114.1,319.3"/>
					<path class="st5" d="M105.7,318.4l0.3,11.8c-2.8-0.4-5.5-0.8-8.1-1.3l-0.3-11.8C100.2,317.6,102.9,318,105.7,318.4"/>
					<path class="st15" d="M97.6,317.1l0.3,11.8c-2.7-0.5-5.3-1-7.8-1.6l-0.3-11.8C92.2,316.1,94.9,316.6,97.6,317.1"/>
					<path class="st16" d="M89.7,315.6l0.3,11.8c-2.7-0.6-5.3-1.3-7.8-2l-0.3-11.8C84.4,314.3,87,314.9,89.7,315.6"/>
					<path class="st17" d="M81.9,313.6l0.3,11.8c-2.9-0.8-5.6-1.7-8.1-2.6L73.8,311C76.3,311.9,79,312.8,81.9,313.6"/>
					<path class="st18" d="M73.8,311l0.3,11.8c-13.8-5.1-22-11.8-21.9-19.3l-0.3-11.8C51.8,299.2,60.1,305.9,73.8,311"/>
				</g>
			</g>
			<g>
				<path class="st19" d="M146.4,259.7c51.9-0.9,93.7,12,93.5,28.8c-0.3,16.8-42.6,31.2-94.5,32.1c-51.9,0.9-93.7-12-93.5-28.8
					C52.2,274.9,94.5,260.6,146.4,259.7z"/>
			</g>
		</g>
	</g>
</g>
<g>
</g>
<g>
</g>
<g>
</g>
<g>
</g>
<g>
</g>
</svg>
