<?xml version="1.0" encoding="utf-8"?>
<!-- Generator: Adobe Illustrator 22.1.0, SVG Export Plug-In . SVG Version: 6.00 Build 0)  -->
<svg version="1.1" id="Слой_1" xmlns="http://www.w3.org/2000/svg" xmlns:xlink="http://www.w3.org/1999/xlink" x="0px" y="0px"
	 viewBox="0 0 300 300" style="enable-background:new 0 0 300 300;" xml:space="preserve">
<style type="text/css">
	.st0{fill:#FFFFFF;}
</style>
<path class="st0" d="M150,50C95,50,50,95,50,150s45,100,100,100s100-45,100-100S205,50,150,50z M131.3,222.5
	C98.8,214.4,75,185,75,150c0-21.9,10-41.9,25-55.6v49.4c0,3.1,1.3,6.2,3.8,8.8l15,15V200c0,6.9,5.6,12.5,12.5,12.5V222.5z
	 M168.8,222.5v-10c6.9,0,12.5-5.6,12.5-12.5v-18.8c0-10.6-8.1-18.8-18.8-18.8h-13.7L125,138.7v-7.5h25c6.9,0,12.5-5.6,12.5-12.5v-25
	c6.9,0,12.5-5.6,12.5-12.5v-1.9c21.2,7.5,38.1,24.4,45.6,45.6h-1.9c-6.9,0-12.5,5.6-12.5,12.5s5.6,12.5,12.5,12.5
	c2.5,0,4.4-0.6,6.2-1.9v1.9C225,185,201.2,214.4,168.8,222.5z"/>
</svg>
